<svg id="Layer_1" data-name="Layer 1" xmlns="http://www.w3.org/2000/svg" viewBox="0 0 146.26 109.12">
  <defs>
    <style>
      .cls-1 {
        fill: #001f4a;
      }
    </style>
  </defs>
  <title>leaves</title>
  <g>
    <path class="cls-1" d="M211.83,327.44c-18.46-3.85-29.4-21.33-29.8-39.41-.45-19.76,9.8-37.4,22-52.19,1.22-1.48-.89-3.61-2.12-2.12-13.37,16.24-24.57,36-22.68,57.77,1.58,18.11,13.42,35,31.83,38.85,1.88.39,2.68-2.5.79-2.9Z" transform="translate(-134.28 -231.61)"/>
    <path class="cls-1" d="M215.84,331.49c11.76-12.53,15.95-30.06,13.82-46.87-2.48-19.59-13-37-24.83-52.38-1.16-1.51-3.76,0-2.59,1.52,10.77,14,20.42,29.52,23.81,47.11,3.27,17-.24,35.62-12.34,48.5-1.32,1.4.8,3.53,2.13,2.12Z" transform="translate(-134.28 -231.61)"/>
    <path class="cls-1" d="M216.09,330.61a178.39,178.39,0,0,1-10.68-93.56c.29-1.89-2.6-2.7-2.89-.8A181.22,181.22,0,0,0,213.2,331.4c.7,1.77,3.61,1,2.89-.79Z" transform="translate(-134.28 -231.61)"/>
    <path class="cls-1" d="M230.59,305.57c4-8.11,12.26-11.43,20.67-13.22,8.15-1.72,16.45-2.89,24.66-4.29,1.9-.33,1.1-3.22-.8-2.9-9.92,1.7-20.37,2.68-30,5.66-7.22,2.23-13.69,6.32-17.12,13.24-.85,1.72,1.73,3.24,2.59,1.51Z" transform="translate(-134.28 -231.61)"/>
    <path class="cls-1" d="M223,334.82c12.9-.56,26.26-1.71,35.86-11.35,9.94-10,16.88-23.38,21.57-36.52.65-1.82-2.25-2.6-2.9-.8-4.36,12.23-10.79,24.42-19.66,34-9.21,10-22.07,11.09-34.87,11.65-1.93.09-1.94,3.09,0,3Z" transform="translate(-134.28 -231.61)"/>
    <path class="cls-1" d="M222.87,334a162.3,162.3,0,0,1,56.89-47.36c1.72-.86.21-3.45-1.52-2.59a165.32,165.32,0,0,0-58,48.44c-1.16,1.54,1.44,3,2.59,1.51Z" transform="translate(-134.28 -231.61)"/>
    <path class="cls-1" d="M184.9,309.92a60.38,60.38,0,0,0-49.58,5.74,1.51,1.51,0,0,0-.54,2A54.25,54.25,0,0,0,211,330.38c1.55-1.12.05-3.73-1.51-2.59a51.25,51.25,0,0,1-72.1-11.6l-.54,2.06a57.45,57.45,0,0,1,47.28-5.44c1.84.59,2.63-2.3.79-2.89Z" transform="translate(-134.28 -231.61)"/>
    <path class="cls-1" d="M207.39,328.43,170.82,323,153,320.4l-8.89-1.32-4-.58-3-.44a1,1,0,0,0-1.57.46.75.75,0,0,0,0-1.5h-.45a.78.78,0,0,0-.72.55l-.16.42a.76.76,0,0,0,.34.85c1.37,1.05,3.47.86,5.12,1.1l9.89,1.47,18.78,2.77,38.54,5.7c.94.14,1.35-1.31.4-1.45Z" transform="translate(-134.28 -231.61)"/>
    <path class="cls-1" d="M208.15,315.86a66.47,66.47,0,0,1-22.52-11.71c-.75-.6-1.82.46-1.06,1.06a68.66,68.66,0,0,0,23.18,12.1.75.75,0,0,0,.4-1.45Z" transform="translate(-134.28 -231.61)"/>
    <path class="cls-1" d="M205.05,302.15c-7.91-2.53-17.78-5.92-23.91-11.79-.7-.67-1.76.39-1.06,1.06,6.35,6.08,16.33,9.54,24.57,12.17.92.3,1.31-1.15.4-1.44Z" transform="translate(-134.28 -231.61)"/>
    <path class="cls-1" d="M201.78,289c-6.69-2.28-13.35-4.64-18.93-9.11-.75-.6-1.82.46-1.07,1.06,5.8,4.64,12.65,7.13,19.6,9.49.91.31,1.31-1.13.4-1.44Z" transform="translate(-134.28 -231.61)"/>
    <path class="cls-1" d="M201.94,276.83A64.24,64.24,0,0,1,192.8,273c-1.24-.64-7.73-3.52-7.68-5.11,0-1-1.47-1-1.5,0-.08,2.47,4.6,4.28,6.33,5.27a65.51,65.51,0,0,0,11.59,5.13c.92.31,1.31-1.14.4-1.45Z" transform="translate(-134.28 -231.61)"/>
    <path class="cls-1" d="M200.5,265.18a26.75,26.75,0,0,1-11.23-6.49c-.7-.67-1.76.39-1.06,1.06a28.5,28.5,0,0,0,11.89,6.88.75.75,0,0,0,.4-1.45Z" transform="translate(-134.28 -231.61)"/>
    <path class="cls-1" d="M200.52,255.12a19.26,19.26,0,0,1-7.15-5.49c-.61-.75-1.67.31-1.06,1.06a20.22,20.22,0,0,0,7.45,5.73c.87.39,1.64-.9.76-1.3Z" transform="translate(-134.28 -231.61)"/>
    <path class="cls-1" d="M213,322.92a50.89,50.89,0,0,0,15.57-16.51.75.75,0,0,0-1.3-.76,48.94,48.94,0,0,1-15,16c-.8.54,0,1.84.76,1.3Z" transform="translate(-134.28 -231.61)"/>
    <path class="cls-1" d="M226,327.3c-.61-3.1-1.61-7-.69-10.12a.75.75,0,0,0-1.44-.4c-1,3.4,0,7.52.68,10.92.19.94,1.63.54,1.45-.4Z" transform="translate(-134.28 -231.61)"/>
    <path class="cls-1" d="M231,320.23a46.71,46.71,0,0,1-1.07-7.05c-.11-1.64-.67-5.32.25-6.77.52-.82-.78-1.57-1.3-.76-1,1.66-.59,4.62-.51,6.48a48.72,48.72,0,0,0,1.18,8.5c.21.94,1.66.54,1.45-.4Z" transform="translate(-134.28 -231.61)"/>
    <path class="cls-1" d="M237.43,314a21.94,21.94,0,0,1-2.16-8c-.2-2.13-.67-5.16.07-7.19.33-.9-1.12-1.3-1.45-.4-.92,2.53-.32,6,0,8.62a23,23,0,0,0,2.25,7.75c.44.86,1.73.1,1.3-.76Z" transform="translate(-134.28 -231.61)"/>
    <path class="cls-1" d="M242.7,308.2a49.16,49.16,0,0,1-.83-12.58c0-1-1.45-1-1.5,0a50.05,50.05,0,0,0,.89,13c.18.94,1.63.54,1.44-.4Z" transform="translate(-134.28 -231.61)"/>
    <path class="cls-1" d="M249,303.06c-.09-1.83-.14-3.67-.09-5.51s-.16-4.3.69-5.83c.47-.85-.83-1.6-1.3-.76-.79,1.42-.72,3.17-.81,4.76a66.56,66.56,0,0,0,0,7.34c.05,1,1.55,1,1.5,0Z" transform="translate(-134.28 -231.61)"/>
    <path class="cls-1" d="M256.94,297.56a12.14,12.14,0,0,1,.27-6.73c.3-.92-1.15-1.32-1.45-.4a13.67,13.67,0,0,0-.27,7.53c.23.94,1.67.54,1.45-.4Z" transform="translate(-134.28 -231.61)"/>
    <path class="cls-1" d="M229.1,326.25a186.31,186.31,0,0,0,29.61-5.44.75.75,0,0,0-.4-1.44,184.48,184.48,0,0,1-29.21,5.38c-.95.1-1,1.6,0,1.5Z" transform="translate(-134.28 -231.61)"/>
    <path class="cls-1" d="M234.65,319.14a85.9,85.9,0,0,0,29.56-5.69c.9-.34.51-1.79-.4-1.44a85,85,0,0,1-29.16,5.63.75.75,0,0,0,0,1.5Z" transform="translate(-134.28 -231.61)"/>
    <path class="cls-1" d="M241.27,312.86a90.56,90.56,0,0,0,27-4.89c.9-.32.51-1.77-.4-1.45a88.55,88.55,0,0,1-26.58,4.84c-1,0-1,1.53,0,1.5Z" transform="translate(-134.28 -231.61)"/>
    <path class="cls-1" d="M249.88,306.64a58.31,58.31,0,0,0,25.79-8.89c.82-.51.07-1.81-.75-1.29a56.78,56.78,0,0,1-25,8.68c-.95.1-1,1.6,0,1.5Z" transform="translate(-134.28 -231.61)"/>
    <path class="cls-1" d="M260.94,298.23c5.55-1.15,11.1-2.39,15.95-5.45.81-.52.06-1.82-.76-1.3-4.74,3-10.16,4.18-15.59,5.3-.94.2-.54,1.65.4,1.45Z" transform="translate(-134.28 -231.61)"/>
    <path class="cls-1" d="M151.74,319.22a30.62,30.62,0,0,0-2.24-2.86c-.79-.89-2.1-1.77-2.58-2.86-.39-.88-1.68-.12-1.3.76a10.42,10.42,0,0,0,2.27,2.56,27.53,27.53,0,0,1,2.55,3.16c.55.79,1.85,0,1.3-.76Z" transform="translate(-134.28 -231.61)"/>
    <path class="cls-1" d="M160.87,320.75a54.94,54.94,0,0,0-8.45-10.7c-.69-.68-1.75.38-1.06,1.06a53.63,53.63,0,0,1,8.22,10.4.75.75,0,0,0,1.29-.76Z" transform="translate(-134.28 -231.61)"/>
    <path class="cls-1" d="M170.12,322.1a120.31,120.31,0,0,0-9.84-12.87c-.63-.73-1.69.33-1.06,1.06a120.72,120.72,0,0,1,9.61,12.57c.53.8,1.83.05,1.29-.76Z" transform="translate(-134.28 -231.61)"/>
    <path class="cls-1" d="M180.22,323.57c-3.28-5.24-6.62-10.44-10.93-14.92-.67-.69-1.73.37-1.06,1.06,4.22,4.39,7.48,9.49,10.7,14.62.51.82,1.81.06,1.29-.76Z" transform="translate(-134.28 -231.61)"/>
    <path class="cls-1" d="M189,324.82c-2.32-5.19-5.8-9.49-9.27-13.94-.59-.76-1.65.31-1.06,1.06,3.4,4.36,6.77,8.56,9,13.64.4.88,1.69.11,1.3-.76Z" transform="translate(-134.28 -231.61)"/>
    <path class="cls-1" d="M196.88,326.34c-3.52-5.21-6.82-12.23-12.32-15.64-.82-.51-1.58.78-.76,1.29,5.19,3.23,8.43,10.16,11.79,15.11.54.79,1.84,0,1.29-.76Z" transform="translate(-134.28 -231.61)"/>
    <path class="cls-1" d="M155.9,321.54a43,43,0,0,1-4.46,3.4c-.43.27-3.9,2.67-4.18,2.48-.79-.55-1.54.74-.75,1.29,1.2.84,3.6-1.18,4.6-1.79A43.06,43.06,0,0,0,157,322.6c.73-.63-.34-1.69-1.06-1.06Z" transform="translate(-134.28 -231.61)"/>
    <path class="cls-1" d="M163.75,323.29c-2.48,2.88-5.73,6.52-9.42,7.78l.58,1.37.45-.27a.75.75,0,0,0-.75-1.3l-.46.27c-.71.42-.25,1.65.58,1.37,4-1.34,7.43-5.08,10.08-8.16.63-.73-.43-1.79-1.06-1.06Z" transform="translate(-134.28 -231.61)"/>
    <path class="cls-1" d="M173.34,324.42c-1.08,2-2.9,3.71-4.44,5.41a35.3,35.3,0,0,1-5.84,5.42l.91,1.18.37-.21c.91-.32.52-1.77-.39-1.45a2.47,2.47,0,0,0-1,.6c-.64.55.21,1.67.91,1.18a37.43,37.43,0,0,0,6.14-5.66c1.63-1.8,3.53-3.56,4.67-5.72.45-.85-.84-1.61-1.29-.75Z" transform="translate(-134.28 -231.61)"/>
    <path class="cls-1" d="M181.4,326.33c-1.83,1.71-2.84,4.34-4.4,6.31-1.25,1.57-3.91,5.73-6,6l1,.72v-.1l-.55.73.07,0c1-.2.55-1.64-.4-1.45l-.07,0a.74.74,0,0,0-.55.72v.1a.76.76,0,0,0,.95.72c2.11-.3,4.32-3.57,5.55-5.05.89-1.07,1.78-2.15,2.59-3.29,1-1.41,1.67-3.2,2.94-4.39.71-.66-.35-1.72-1.06-1.06Z" transform="translate(-134.28 -231.61)"/>
    <path class="cls-1" d="M190.71,327.73c-1.38,3.93-4.28,7.67-7,10.78-.52.6.17,1.71.91,1.18l.3-.22c.78-.56,0-1.86-.75-1.29l-.31.22.91,1.17c2.87-3.34,5.86-7.24,7.33-11.44.33-.91-1.12-1.3-1.44-.4Z" transform="translate(-134.28 -231.61)"/>
    <path class="cls-1" d="M200,329.07c-1.44,2.69-2.73,5.93-5.38,7.66-.81.52-.06,1.82.75,1.29,2.92-1.9,4.34-5.23,5.93-8.2.45-.85-.84-1.6-1.3-.75Z" transform="translate(-134.28 -231.61)"/>
    <path class="cls-1" d="M209.24,309.83c7.51-4.16,14.95-8.83,19.24-16.52.47-.84-.82-1.6-1.29-.76-4.17,7.47-11.43,11.95-18.71,16-.85.47-.09,1.77.76,1.3Z" transform="translate(-134.28 -231.61)"/>
    <path class="cls-1" d="M207.16,295.54a47.93,47.93,0,0,0,19-15.82c.57-.79-.73-1.54-1.29-.76a46.59,46.59,0,0,1-18.44,15.29c-.88.4-.11,1.7.76,1.29Z" transform="translate(-134.28 -231.61)"/>
    <path class="cls-1" d="M204.65,281.88A75.79,75.79,0,0,0,222.86,267c.64-.72-.42-1.78-1.06-1.06a74.47,74.47,0,0,1-17.91,14.64.75.75,0,0,0,.76,1.29Z" transform="translate(-134.28 -231.61)"/>
    <path class="cls-1" d="M203.26,270c6.29-2.7,11.42-7.12,16.49-11.61.72-.64-.34-1.7-1.06-1.06-5,4.41-10,8.73-16.19,11.38-.88.38-.12,1.67.76,1.29Z" transform="translate(-134.28 -231.61)"/>
    <path class="cls-1" d="M203.69,260.86A50.23,50.23,0,0,0,216.21,252c.7-.67-.36-1.73-1.06-1.06a49.05,49.05,0,0,1-12.22,8.62c-.86.43-.1,1.72.76,1.3Z" transform="translate(-134.28 -231.61)"/>
    <path class="cls-1" d="M203.92,250.71a66.85,66.85,0,0,0,7.42-5.43c.74-.63-.33-1.68-1.06-1.06a64.42,64.42,0,0,1-7.12,5.19c-.81.51-.06,1.81.76,1.3Z" transform="translate(-134.28 -231.61)"/>
    <path class="cls-1" d="M201.52,243.43a7.92,7.92,0,0,1-3.15-1.5c-.74-.59-1.81.46-1.06,1.06a9.65,9.65,0,0,0,3.82,1.89c.93.22,1.33-1.23.39-1.45Z" transform="translate(-134.28 -231.61)"/>
    <path class="cls-1" d="M208.53,331.23a4.55,4.55,0,0,1,4.51,2.91,21.45,21.45,0,0,1,1.42,5.26c.28,1.91,3.17,1.1,2.89-.79a17.71,17.71,0,0,0-2.6-7.61c-1.36-1.9-4-2.75-6.22-2.77a1.5,1.5,0,0,0,0,3Z" transform="translate(-134.28 -231.61)"/>
    <path class="cls-1" d="M218.15,339.53a29.49,29.49,0,0,1,6.35-7.2c1.12-.92-.48-2.51-1.59-1.59a31.23,31.23,0,0,0-6.7,7.66c-.77,1.23,1.17,2.36,1.94,1.13Z" transform="translate(-134.28 -231.61)"/>
    <path class="cls-1" d="M221.81,330.29a13.43,13.43,0,0,1-.8-4.21c0-1.93-3-1.94-3,0a16.13,16.13,0,0,0,.91,5c.64,1.81,3.54,1,2.89-.8Z" transform="translate(-134.28 -231.61)"/>
  </g>
</svg>
