<svg id="Layer_1" data-name="Layer 1" xmlns="http://www.w3.org/2000/svg" viewBox="0 0 281.45 35.5">
  <defs>
    <style>
      .cls-1 {
        fill: #00b5c9;
      }

      .cls-2 {
        opacity: 0.9;
      }

      .cls-3 {
        fill: #b0bac7;
      }

      .cls-4 {
        fill: #ccd2db;
      }

      .cls-5 {
        fill: #d8dde3;
      }

      .cls-6 {
        fill: #d2d7df;
      }

      .cls-7 {
        fill: #bac3ce;
      }

      .cls-8 {
        fill: #bec6d1;
      }

      .cls-9 {
        fill: #96a3b5;
      }

      .cls-10 {
        fill: #a1acbc;
      }

      .cls-11 {
        fill: #a8b2c1;
      }

      .cls-12 {
        fill: #e9ecef;
      }

      .cls-13 {
        fill: #e3e6eb;
      }
    </style>
  </defs>
  <title>underline</title>
  <g>
    <path class="cls-1" d="M75.93,70.21l281.45,8.64" transform="translate(-75.93 -54.55)"/>
    <g class="cls-2">
      <g class="cls-2">
        <path class="cls-3" d="M184.93,86.07c-6.87,0-13.75.16-20.62.32,1.53-.62,3-1.23,4.56-1.81C174,83,179.38,85.63,184.93,86.07Z" transform="translate(-75.93 -54.55)"/>
        <path class="cls-3" d="M203.8,86.21h0c-5.3-.12-10.59-.16-15.89-.15a6.65,6.65,0,0,0,1.08-.14C193.94,84.8,198.91,84.21,203.8,86.21Z" transform="translate(-75.93 -54.55)"/>
        <path class="cls-4" d="M290,66.54C284.47,74,277.7,80.07,271.4,86.31c-1.56.38-3.25,1.32-4.56,1.28.05.27-9.28.66-14,.42a44.31,44.31,0,0,0,7.44-10.8c-1.87-.78-5.61-1.62-5.57-3.07,1.13-5.47,5.08-8.76,9.17-11.86C265,62.56,281.34,67.13,290,66.54Z" transform="translate(-75.93 -54.55)"/>
        <path class="cls-5" d="M310.73,68.21c5.65.59,13,3.36,16.12,4.23a54.42,54.42,0,0,1-6.33,8.77c1.84,1.51,3.06,3,4.92,3.78l-1.51,1.52c-9.47.18-18.9.64-28.33,1.06C296.3,85.68,308,73.92,310.73,68.21Z" transform="translate(-75.93 -54.55)"/>
        <path class="cls-6" d="M293.89,68.11c2.15-.35,4.1-.7,6-1.06,3.61.22,7.23.53,10.88,1.11a44,44,0,0,1-11,14.63c.63,0,1.12,2.1,1.75,2.12-3.08,1.25-5.17.77-5.87,2.7-8.74.38-17.47.73-26.21.76,1.92-1.37,3.77-.59,5.65-.53-.84-1.76-2.17-1.88-3.6-1.53,6.3-6.24,13.07-12.35,18.64-19.77l1.83.1C292.4,67.56,292.84,68.47,293.89,68.11Z" transform="translate(-75.93 -54.55)"/>
        <path class="cls-7" d="M198,78.21c5.56-3.29,9.38-8,12.48-13.28,1.57.54,4.61,1.78,6.88.58,4.09.24,12.63,1.78,14.08,0s-9.18,7.6-13.29,11.91c-.53,2.81-2.72,5-5.33,7-.8-.21-.06-2-.86-2.25a18.24,18.24,0,0,1-1.51,2.2s-5.91-.29-8.85-.4c-1.36-2.88-5-.76-5.14-.17L194,83.74h-.08c1.14-.88,2.29-1.76,3.45-2.59A7.32,7.32,0,0,0,198,78.21Z" transform="translate(-75.93 -54.55)"/>
        <path class="cls-8" d="M254.71,74.21c1.13-5.47,5.08-8.76,9.17-11.86-1.56-.36-5.53-1.22-5.95-1.31.43,1.26,1.18,2.61.23,3.12a33,33,0,0,1-7.58,1.22c-2.39-.47-4.93-2.24-7.48-3.18-2.13.39-4.24.82-6.3,1.31a6.87,6.87,0,0,0-1.34,2.85,13.33,13.33,0,0,1-4-.83c-.16.43-11.88,6.88-13.29,11.91-.53,2.81-2.72,5-5.33,7,.15,0,7.24.56,10.64.84a5.36,5.36,0,0,0-1.72-2c.48,0,3.79,1.82,5.12,2.25q4,.36,8,.33c.63,0-.59-1.47-.54-2.92a24.11,24.11,0,0,0,8.13,4.27l2.31.2c.22.57.39,1,.06.94a15,15,0,0,1-1.48.33c1.43.15,7.49.85,9.1,1a24,24,0,0,1-4.76-2c1.66.13,3.33.23,5,.32h.21a44.66,44.66,0,0,0,7.37-10.79C258.41,76.45,254.67,75.61,254.71,74.21Z" transform="translate(-75.93 -54.55)"/>
        <path class="cls-9" d="M92.36,83c-3.4-2.87-9-3-11.91-6.61-4.51-6.67-2.41-14.22-4-21.88a310.94,310.94,0,0,0,43.88,6.66c-3.76,3.11-10,1.15-13.15,6.3,0,.72,1.21,1.48,1.82,2.22-3.84,2.06-10.15,2.6-10.26,6.22-.06,2.21,1,4.65,1.45,7.55H98.76C97.32,82.32,95,83,92.36,83Z" transform="translate(-75.93 -54.55)"/>
        <path class="cls-10" d="M119.74,86.57c-3.43.09-6.88.17-10.32.24a16.71,16.71,0,0,0-.19-2q6,.09,12.1-.34A18.09,18.09,0,0,0,119.74,86.57Z" transform="translate(-75.93 -54.55)"/>
        <path class="cls-10" d="M109,69.68c-.61-.74-1.85-1.5-1.82-2.22,3.18-5.15,9.39-3.19,13.15-6.3q8.47.69,17,1.11c-1,.55-2,1.1-3,1.67,3.14.09,3.61,5.18,6.75,5.28-9.33,5-21.67,5.71-28.78,13.9-4,.27-8.08.4-12.11.33-.45-2.9-1.51-5.34-1.45-7.55C98.81,72.28,105.12,71.74,109,69.68Z" transform="translate(-75.93 -54.55)"/>
        <path class="cls-11" d="M141,69.21c-3.14-.1-3.61-5.19-6.75-5.28,1-.57,2-1.12,3-1.67,6.55.32,13.1.53,19.64.69.44.1.87.19,1.3.26,5,.73,9.22.52,13.88,1.23-3.2,2.81-6.39,5.61-9.68,8.27a70,70,0,0,0-19.28-10c2.5.8,1.76,4.4,3,5.17,4.5,4.14,8.34,12.55,5.92,16-9.8.25-19.61.58-29.45.89-.64-1-1.54-2.48-2.07-2.49q-4.12.47-8.25.75C119.37,74.93,131.71,74.21,141,69.21Z" transform="translate(-75.93 -54.55)"/>
        <path class="cls-3" d="M162.4,72.72c3.29-2.66,6.48-5.46,9.68-8.27,1.19.19,2.41.43,3.67.76a3.19,3.19,0,0,0-.37-1.92H178c1,.41,2,2.68,3.58,0h3.73a7.78,7.78,0,0,1,2.93,3.62l.07-2.17c1.3-1.41,2.51.08,3.77.11a7,7,0,0,1,.15-1.45c5.79,2,14.15.31,15.67.35a24.7,24.7,0,0,0,2.54,1.06c-3.1,5.4-6.92,10.12-12.43,13.4,0,0-.07,2.17-.72,2.88-1.16.83-2.31,1.71-3.45,2.59-6.71-3.74-15.58-.15-15.94-.11h-3c-5.54-.44-14-4.44-20.62.32L152,84c2.42-3.49-1.42-11.9-5.92-16-1.23-.77-5.2-5-3-5.17C151,63.67,162.78,73,162.4,72.72Z" transform="translate(-75.93 -54.55)"/>
        <path class="cls-12" d="M350.9,78l6.46,1.48c-2.36-.08-4.71-.9-6,.73a6.94,6.94,0,0,0-3.41-.66A11.89,11.89,0,0,1,350.9,78Z" transform="translate(-75.93 -54.55)"/>
        <path class="cls-12" d="M346.41,88.21h-1.89c0-1.45,1.35-2.86,2.58-2.1,0-1.45-1.26,0-1.23-.76.06-1.93.77-2,1.62-1.73-.1,3.25-1.14,6.46-2.08,6.43h-1.25C344.9,89.33,346,89,346.41,88.21Z" transform="translate(-75.93 -54.55)"/>
        <path class="cls-13" d="M325.44,85c-1.86-.78-3.08-2.27-4.92-3.78a55.15,55.15,0,0,0,6.33-8.86c5.64,1.6,11.17,3,16.86,4.31a11.7,11.7,0,0,0-3,1.55,7.06,7.06,0,0,1,3.41.66,3.57,3.57,0,0,0-.64,1.24h0c-.85-.26-1.57-.21-1.63,1.72,0,.73,1.28-.69,1.24.76-1.24-.76-2.54.65-2.58,2.1l1.88.06c-.37.79-1.5,1.12-2.24,1.75q-8.16-.21-16.25,0Z" transform="translate(-75.93 -54.55)"/>
      </g>
    </g>
  </g>
</svg>
