<svg id="Layer_1" data-name="Layer 1" xmlns="http://www.w3.org/2000/svg" viewBox="0 0 249.43 258.9">
  <title>doula-logo</title>
  <g>
    <path d="M201.88,153l42.57-20.9c.57.9,1.14,1.8,1.72,2.7-11.52,11-26.89,17.17-38.39,29.22l47.1-5.2c.25,1.37.49,2.75.74,4.12l-46.27,11.26v1.94L255,187.82c-.28,1.33-.56,2.67-.85,4l-46.48-5.25-.77,2.12,39.52,25.95-1.29,2.61c-8.22.62-14.15-5.69-21.11-8.75-7.54-3.32-14.86-7.17-23.54-9.59l27.75,38.94-2.05,1.5-32.62-32.89-2.65,1.61,12.75,44.34-2.94,1.16c-9-13-12.33-29-22-42.29l-3.27,46.91-4.09.16L168,211.45l-2-.33q-9.56,21.34-19.12,42.67l-3.66-1.36q6.44-22.58,12.88-45.14l-1.14-.82-33.62,33.42-2.76-2.08,27.63-38.5-1.13-1.78-42.55,20.64-1.8-3.09,39.47-26.67-.73-2.25-46.52,5-.68-3.56,45.16-11.4v-2.32L91.89,162.57l.61-3.75L139.8,164l.92-2-39.2-26.17,1-2.18c8.12-.1,14.26,5.84,21.33,8.76,7.53,3.1,14.66,7.18,22,10.83l1.37-1.57-27.87-38.15,2.22-2c12.93,9,21.28,23.22,35.19,32.12q-6.54-22.78-13.07-45.55l2.74-1.16c8.14,13.42,12.79,28.72,21.72,42.44Q170,116,171.88,92.65l3.86-.09,3.18,47.1,2.16.41,19.11-43,3.65,1.25q-6.68,22.58-13.34,45.25l3.24,2.28q16.45-17.21,32.9-34.43l1.94,1.54-28.12,38.61Z" transform="translate(-49.47 -48.3)"/>
    <path d="M229.67,255.84c20.13-18.37,33-40.61,35.4-68.09.43-5,2.44-6.08,6.63-6s8.3-.07,12.45,0c14.49.18,15.09-3.48,13,14.45-4.69,40.31-24.5,71.91-59.6,92.77-9.53,5.67-20.8,8.39-31.27,12.46,2-.92,4-1.94,6.05-2.73q73.62-28.2,83.1-106.46a32.25,32.25,0,0,0-.36-6.05c-2.07,2.37-2.2,4.55-2.48,6.71-2.14,16-5.4,31.61-14.67,45.29.9-2.89,1.73-5.8,2.73-8.65,4.82-13.79,9.39-27.62,8.13-42.71-1.95,23.4-10.39,44.46-22.27,64.31l-9.94,10.92L235.81,278c2.16-2.37,4.33-4.74,6.48-7.12q9.54-10.55,19.06-21.1c16.37-17.48,22.39-38.69,22.54-62a15.31,15.31,0,0,0-2.18,6.8c-1,14.61-5.55,28.1-12.62,40.83-2.65,4.77-5,9.67-7.57,14.51l-29.71,24.92c4.14-4,8.15-8.22,12.46-12.06,18.93-16.86,30-38.14,35.15-62.64.9-4.27.13-8.89.13-13.35a30.92,30.92,0,0,0-3.38,10.93c-5.49,34.58-23.66,59.6-54.5,76.72-39.6,22-92.69,13.27-124-21.06-9.65-10.59-18.85-21.92-21-37l-.22.1c1.14,1.87,2.45,3.65,3.39,5.61,17.53,36.79,46.05,58.22,87,61.66,54.23,4.56,101.88-36.13,107.89-91.08.22-2.08-.32-4.24-.5-6.36-4.82,37.61-21.54,66.39-55.79,83.69,16.72-12.45,32.46-25.68,41.79-45.12,5.88-12.24,8.79-24.84,8-38.53C265.17,215.09,254.71,239.57,229.67,255.84Z" transform="translate(-49.47 -48.3)"/>
    <path d="M78.35,260.57c-18.64-19.91-27.06-43.89-28.57-70.77-.35-6.3,1.94-8.5,8-8.15a146.54,146.54,0,0,0,18.27,0c5.29-.35,5.9,2.23,6.87,6.73,2.64,12.37,6.32,24.51,9.57,36.72L77.4,187.24c-.56,12.17,3.3,23.82,8.06,35.29-4.24-11.62-8.47-23.25-13.22-36.26l4.19,30.23.22-.1c-2.89-10.14-5.78-20.28-9.09-31.91-1.17,11.43,3.89,34.42,10.35,46.25C108,285.85,169.27,303,222.19,277.89c3.15-1.5,6.67-2.25,10-3.35L207.1,288.62c-4.65.42-9.33.57-13.9,1.33-16.67,2.77-33.35,3-49.3-2.81-12.12-4.43-23.6-10.59-35.38-16Q96.72,259.59,84.93,248c-11-19.2-20.43-39-21.9-61.69-.28,22.6,6.8,42.72,19.85,60.83.36.51,1.45.49,2.2.72,4.79,10.87,12.33,18.91,23.65,23.1.66,1.13,1,2.68,2,3.33,29.81,19.86,61.73,25.72,96.2,14.19,2.9-.84,5.88-1.46,8.69-2.54,6.88-2.65,13.69-5.5,20.53-8.27a113.71,113.71,0,0,1-52.28,18.9c-23.33,2.41-44.75-4.35-65.81-13.12l.33.81c-6.29-4.93-12.87-9.55-18.83-14.86-19.74-17.58-33.43-38.78-37.78-65.31-1-5.83-1.85-11.67-2.77-17.51L56.9,187q2.15,14.42,4.28,28.82l-1.93.25c-1.78-10-3.57-20.08-5.58-31.41C49.24,197.75,57.12,229.57,78.35,260.57Z" transform="translate(-49.47 -48.3)"/>
    <path d="M78.3,132.19c-1.83,10.24-3.69,20.48-5.44,30.73a10.34,10.34,0,0,0,0,2.94c4.31-12,9.06-25.34,13.82-38.64-2.53,8.46-5.38,16.84-7.48,25.4a35.14,35.14,0,0,0-.14,14.83q4-16.37,8-32.72l2.21.5c-1.87,7.39-4,14.73-5.55,22.19-3.13,14.91-3,14.93-18.72,15.18-16.26.26-16.92.16-14.47-15.81,1.47-9.55,5.4-18.71,8.22-28l-.18-.17q-4.08,19.49-8.17,39l2.5.47L63.31,128.9q-3.42,18.71-6.86,37.41l3.06.66c1.9-18.24,4.72-36.17,16.24-51.2-7,16-14.16,32-12.47,50.35,3.18-21.44,9.35-41.64,23.45-58.71C74.24,125.71,68.41,146,68.08,167.93Z" transform="translate(-49.47 -48.3)"/>
    <path d="M266.31,141.34q3.38,13.33,6.77,26.68l2.2-.22q-2-14.09-4-28.15,3.86,13.68,7.7,27.38l1.69-.17q-1.79-11.27-3.53-22.57v.08q3.71,10.95,7.42,21.89l.74.23q-1.55-13.73-3.07-27.41,3.15,14.21,6.24,28.34a16.91,16.91,0,0,0,1.33-9.12c-2.54-19.17-8.7-37-20.17-52.77-2.16-3-5.36-5.18-8.08-7.74l.32.33Q254.49,89,247.13,79.84c4.57,3.38,9.79,6.15,13.61,10.23,19.28,20.55,28.55,45.62,32,73.17a30.06,30.06,0,0,0,.63,3.25c.05.19.43.31,1.2.82,2.78-17.77-5.13-32.94-10.19-48.68l-.16.18c3.37,7.56,7.75,14.86,9.87,22.76,2.54,9.45,3.15,19.43,4.81,30.7-11.22,0-21,.09-30.77-.15-1,0-2.64-2-2.82-3.24a52.27,52.27,0,0,1-.26-14.83q1.21,7,2.45,14l3-.55Q268.4,154.45,266.31,141.34Z" transform="translate(-49.47 -48.3)"/>
    <path d="M222.38,261.33c-16.35,12.17-35.2,15.29-54.81,14.24C138.11,274,115.12,260,97.48,236.82c-2.08-2.74-2.89-6.44-4.29-9.69,11.28,16.34,24.32,30.84,43.13,38.67,26.31,11,52.51,11.22,78.39-1.73A63.65,63.65,0,0,1,222.38,261.33Z" transform="translate(-49.47 -48.3)"/>
    <path d="M88.14,270.41c14.19,8.89,27.69,19.24,42.74,26.31,20,9.38,41.8,8.84,63.42,6.16,4.11-.51,8.21-1.06,12.32-1.59-15.77,7.19-32.6,6.65-48.91,4.48-23.57-3.14-45.53-11.43-63.61-27.75C91.74,275.89,90.11,273,88.14,270.41Z" transform="translate(-49.47 -48.3)"/>
    <path d="M229.07,66.64c-8.63-2.77-17.16-5.9-25.91-8.26-20.09-5.4-40.24-5.59-60.36.22-2.87.83-6,.93-8.93,1.37,29.37-11.22,58.39-10.23,87,2.57C223.69,63.78,226.35,65.27,229.07,66.64Z" transform="translate(-49.47 -48.3)"/>
    <path d="M284.34,118.63c-11-19.4-24.5-36.64-43.28-49.26-3.72-2.5-7.08-5.55-10.61-8.35l-.18.15c23.22,11.34,40.63,28.68,52.79,51.36,1,1.78.79,4.15,1.13,6.27Z" transform="translate(-49.47 -48.3)"/>
    <path d="M151.35,77.51c1.86-1,3.62-2.75,5.58-3,24.51-3.38,47.82-.47,68.81,13.82-7.65-3-15.2-6.27-23-8.89C185.86,73.73,168.66,73.57,151.35,77.51Z" transform="translate(-49.47 -48.3)"/>
    <path d="M183,79.76a99.63,99.63,0,0,0-60.6,15.49C134.12,83.14,162.49,75.85,183,79.76Z" transform="translate(-49.47 -48.3)"/>
    <path d="M230.45,61c-2.38-.42-4.95-.38-7.1-1.32a129.84,129.84,0,0,0-52.28-11.4c20.66,0,40.92,1.75,59.18,12.89Z" transform="translate(-49.47 -48.3)"/>
    <path d="M246.32,105.57c9.85,10.28,18,21.51,20.12,36.1Z" transform="translate(-49.47 -48.3)"/>
    <path d="M58.74,128.74C60.62,114.45,69.48,104,78,93.41Q68.27,111,58.57,128.57Z" transform="translate(-49.47 -48.3)"/>
    <path d="M250.81,117.44l13.95,29.7-1.92,1-13.68-29.57Z" transform="translate(-49.47 -48.3)"/>
    <path d="M237.39,90c-9.67-4.66-19.12-9.88-29.07-13.85-27.09-10.82-53.69-8.06-79.71,4.12C125.1,81.88,121.55,83.43,118,85,146.28,65.4,176.87,62.4,208.68,73.9,218.85,77.57,227.85,84.57,237.39,90Z" transform="translate(-49.47 -48.3)"/>
    <path d="M232.05,79.36c21.43,13.08,35.46,32.11,44.09,55.33,1.09,2.92.72,6.39,1,9.64h0c-6.39-24-20.11-43-39.24-58.48-2.22-1.8-3.81-4.38-5.69-6.59Z" transform="translate(-49.47 -48.3)"/>
    <path d="M232.23,79.22c-1.35,0-3,.61-4,0C207,66.7,184,62.8,159.74,64.22c26-3.92,50.13.69,72.28,15.14Z" transform="translate(-49.47 -48.3)"/>
    <path d="M213.78,65.65c-22.82-6.54-45.85-8-69.14-3.12C168.07,54.3,191.07,56.57,213.78,65.65Z" transform="translate(-49.47 -48.3)"/>
    <path d="M118.36,84.79,90.57,110Z" transform="translate(-49.47 -48.3)"/>
    <path d="M271.46,140l-16.8-32.79C262.91,116.81,269.57,127.19,271.46,140Z" transform="translate(-49.47 -48.3)"/>
    <path d="M108.49,79.91,88.62,97.75l-1.05-1.18,19.51-18.23Z" transform="translate(-49.47 -48.3)"/>
    <path d="M266.28,106.38q6.74,13.89,13.45,27.78Q273,120.27,266.28,106.38Z" transform="translate(-49.47 -48.3)"/>
    <path d="M261.57,97.79l5,8.91-17.5-17.76,1.41-1.47,11.37,10.65Z" transform="translate(-49.47 -48.3)"/>
    <path d="M266.51,251.12l11.65-13.2A75.34,75.34,0,0,1,253,270.68c1.2-2.85,2.39-5.7,3.61-8.59Z" transform="translate(-49.47 -48.3)"/>
    <path d="M118.06,283.44c12.66,4.9,24.95,11.79,38.07,14.3,31.67,6.06,60.52-3.22,87-20.66-8.94,5.61-17.25,12.87-26.93,16.52-33,12.41-65.72,10.76-97.37-5.32-2.57-1.31-4.6-3.68-6.88-5.55l-.21.2,6.61,1.32Z" transform="translate(-49.47 -48.3)"/>
    <path d="M112,282.73C96.37,275.9,85.15,264.32,76.45,250l-.18.19c.77.18,1.79.1,2.28.57q16.65,16,33.22,32.19Z" transform="translate(-49.47 -48.3)"/>
    <path d="M76.45,250q-8.06-13.33-16.1-26.69l3-1.64q6.48,14.25,13,28.51Z" transform="translate(-49.47 -48.3)"/>
    <path d="M210.74,273c-26.78,13-53.28,10.62-79.57-1.5-.65-.3-1-1.25-1.48-1.89,6.84,2.1,13.62,4.44,20.54,6.25a90.58,90.58,0,0,0,51.58-1.11A73.37,73.37,0,0,1,210.74,273Z" transform="translate(-49.47 -48.3)"/>
    <path d="M130.06,269.82c-20.66-8.77-36-22.78-43.56-44.38C97.06,244.12,112,258.47,130.06,269.82Z" transform="translate(-49.47 -48.3)"/>
  </g>
</svg>
